<?xml version="1.0" encoding="UTF-8" standalone="no"?>
<!DOCTYPE svg PUBLIC "-//W3C//DTD SVG 1.1//EN" "http://www.w3.org/Graphics/SVG/1.1/DTD/svg11.dtd">
<svg width="100%" height="100%" viewBox="0 0 200 200" version="1.1" xmlns="http://www.w3.org/2000/svg" xmlns:xlink="http://www.w3.org/1999/xlink" xml:space="preserve" xmlns:serif="http://www.serif.com/" style="fill-rule:evenodd;clip-rule:evenodd;stroke-linejoin:round;stroke-miterlimit:1.41421;">
    <g transform="matrix(19.9333,0,0,11.6333,0,0)">
        <g>
            <g transform="matrix(0.051191,0,0,0.0949833,-5.27268,-11.9679)">
                <rect x="103" y="126" width="196" height="181" style="fill:rgb(71,145,241);"/>
            </g>
            <g transform="matrix(0.0134376,0,0,0.023025,2.00669,2.11096)">
                <path d="M441.185,380.26C428.236,341.849 397.279,312.227 358.335,300.981C338.246,295.117 313.6,288 313.6,288C324.6,269.1 352.1,183.4 352.1,160L352.1,159.7C391.3,151.9 416.1,140.6 416.1,128C416.1,114.7 388.8,102.9 346,95C336.8,62.2 319,29.2 305.4,12.2C295.9,0.3 279.5,-3.4 265.9,3.4L238.3,17.2C229.3,21.7 218.7,21.7 209.7,17.2L182.1,3.4C168.5,-3.4 152.1,0.3 142.6,12.2C129.1,29.2 111.2,62.2 102,95C59.3,102.9 32,114.7 32,128C32,140.6 56.8,151.9 96,159.7L96,160C96,183.4 123.4,269.1 134.4,288C134.4,288 109.141,294.974 89.642,300.359C59.802,308.591 34.305,328.051 18.492,354.661C6.789,374.522 0,397.615 0,422.4L0,467.2C0,482.553 86.55,530.372 152.052,564.363C197.171,587.731 250.829,587.732 295.949,564.363C361.45,530.372 448,482.553 448,467.2L448,422.4C448,407.646 445.603,393.487 441.185,380.26ZM176,480L134.4,288L184,320L208,360L176,480ZM272,480L240,360L264,320L313.6,288L272,480Z" style="fill:white;fill-rule:nonzero;"/>
            </g>
            <g transform="matrix(0.0427519,0,0,0.073254,0.128515,-12.6294)">
                <path d="M107.826,275.379C107.896,271.195 108.371,267.891 109.25,265.465C110.129,263.039 111.922,260.35 114.629,257.396L121.537,250.277C124.49,246.938 125.967,243.352 125.967,239.52C125.967,235.828 125,232.937 123.066,230.845C121.133,228.753 118.32,227.707 114.629,227.707C111.043,227.707 108.16,228.656 105.98,230.555C103.801,232.453 102.711,235.002 102.711,238.201L92.955,238.201C93.025,232.506 95.056,227.909 99.046,224.411C103.036,220.913 108.23,219.164 114.629,219.164C121.273,219.164 126.45,220.948 130.159,224.517C133.868,228.085 135.723,232.98 135.723,239.203C135.723,245.355 132.875,251.42 127.18,257.396L121.432,263.092C118.865,265.939 117.582,270.035 117.582,275.379L107.826,275.379Z" style="fill:rgb(71,145,241);"/>
            </g>
            <g transform="matrix(0.0427519,0,0,0.073254,0.128515,-12.6294)">
                <path d="M107.404,292.096C107.404,290.514 107.888,289.187 108.854,288.114C109.821,287.042 111.254,286.506 113.152,286.506C115.051,286.506 116.492,287.042 117.477,288.114C118.461,289.187 118.953,290.514 118.953,292.096C118.953,293.678 118.461,294.987 117.477,296.024C116.492,297.062 115.051,297.58 113.152,297.58C111.254,297.58 109.821,297.062 108.854,296.024C107.888,294.987 107.404,293.678 107.404,292.096Z" style="fill:rgb(71,145,241);"/>
            </g>
        </g>
    </g>
</svg>
