<?xml version="1.0" encoding="UTF-8" standalone="no"?><!DOCTYPE svg PUBLIC "-//W3C//DTD SVG 1.1//EN" "http://www.w3.org/Graphics/SVG/1.1/DTD/svg11.dtd"><svg width="100%" height="100%" viewBox="0 0 200 200" version="1.1" xmlns="http://www.w3.org/2000/svg" xmlns:xlink="http://www.w3.org/1999/xlink" xml:space="preserve" xmlns:serif="http://www.serif.com/" style="fill-rule:evenodd;clip-rule:evenodd;stroke-linejoin:round;stroke-miterlimit:1.41421;"><g><rect x="0" y="0" width="199.999" height="199.999" style="fill:#4791f1;"/><path d="M55,75.989c14.203,0 25.714,-11.511 25.714,-25.714c0,-14.203 -11.511,-25.715 -25.714,-25.715c-14.203,0 -25.714,11.512 -25.714,25.715c0,14.203 11.511,25.714 25.714,25.714Zm19.246,6.549l-38.492,0c-14.323,0.683 -25.754,12.395 -25.754,26.88l0,8.357c0,3.3 17.286,13.052 30.431,19.991c9.119,4.803 20.019,4.803 29.138,0c13.145,-6.939 30.431,-16.691 30.431,-19.991l0,-8.357c0,-14.485 -11.431,-26.197 -25.754,-26.88Z" style="fill:#fff;fill-rule:nonzero;"/><path d="M145,75.989c14.203,0 25.714,-11.511 25.714,-25.714c0,-14.203 -11.511,-25.715 -25.714,-25.715c-14.203,0 -25.714,11.512 -25.714,25.715c0,14.203 11.511,25.714 25.714,25.714Zm19.246,6.549l-38.492,0c-14.323,0.683 -25.754,12.395 -25.754,26.88l0,8.357c0,3.3 17.286,13.052 30.431,19.991c9.119,4.803 20.019,4.803 29.138,0c13.145,-6.939 30.431,-16.691 30.431,-19.991l0,-8.357c0,-14.485 -11.431,-26.197 -25.754,-26.88Z" style="fill:#fff;fill-rule:nonzero;"/><path d="M99.999,98c22.094,0 40,-17.906 40,-40c0,-22.094 -17.906,-40 -40,-40c-22.093,0 -40,17.906 -40,40c0,22.094 17.907,40 40,40Zm28.345,-2l-57.736,0c-22.282,1.063 -36.608,18.893 -36.608,41.424l0,12.536c0,5.133 23.175,19.192 43.623,29.986c14.184,7.472 29.522,7.472 43.706,0c20.448,-10.794 44.671,-24.853 44.671,-29.986l0,-12.536c0,-22.531 -15.374,-40.361 -37.656,-41.424Z" style="fill:#4791f1;fill-rule:nonzero;"/><path d="M99.999,93.132c18.937,0 34.285,-15.349 34.285,-34.286c0,-18.937 -15.348,-34.286 -34.285,-34.286c-18.938,0 -34.286,15.349 -34.286,34.286c0,18.937 15.348,34.286 34.286,34.286Zm25.66,8.732l-12.803,51.268l-8.572,-36.429l8.572,-15l-25.714,0l8.571,15l-8.571,36.429l-12.804,-51.268c-19.098,0.911 -34.339,16.527 -34.339,35.839l0,11.143c0,4.399 23.048,17.402 40.575,26.654c12.158,6.405 26.692,6.405 38.85,0c17.526,-9.252 40.574,-22.255 40.574,-26.654l0,-11.143c0,-19.312 -15.241,-34.928 -34.339,-35.839Z" style="fill:#fff;fill-rule:nonzero;"/></g></svg>