<?xml version="1.0" encoding="UTF-8" standalone="no"?><!DOCTYPE svg PUBLIC "-//W3C//DTD SVG 1.1//EN" "http://www.w3.org/Graphics/SVG/1.1/DTD/svg11.dtd"><svg width="100%" height="100%" viewBox="0 0 493 82" version="1.1" xmlns="http://www.w3.org/2000/svg" xmlns:xlink="http://www.w3.org/1999/xlink" xml:space="preserve" xmlns:serif="http://www.serif.com/" style="fill-rule:evenodd;clip-rule:evenodd;stroke-linejoin:round;stroke-miterlimit:1.41421;"><g><path d="M442.116,6.585c1.115,-0.232 2.428,-0.435 3.936,-0.61c4.527,-0.58 10.399,-0.87 17.615,-0.87l0.098,0c4.986,-0.291 9.185,-0.407 12.596,-0.349c2.625,0.058 4.79,0.233 6.495,0.523c1.115,0.174 2.034,0.377 2.756,0.609c0.524,0.058 1.016,0.117 1.476,0.175c0.853,0.116 1.541,0.232 2.066,0.348c1.05,0.232 1.837,0.61 2.362,1.132c0.394,0.464 0.689,0.958 0.886,1.48c0.065,0.233 0.098,0.494 0.098,0.784l0,0.349l-0.098,0.087c0,4.818 -0.197,11.437 -0.591,19.855c-0.065,0.464 -0.131,1.19 -0.197,2.177c-0.328,6.793 -0.557,11.873 -0.688,15.24c0,1.916 0.065,4.819 0.196,8.708c0,0.929 0,1.655 0,2.178c0.197,5.399 0.066,9.724 -0.393,12.975c0,0.058 -0.033,0.203 -0.099,0.436l0,0.087c0,0.348 -0.033,0.667 -0.098,0.958c-0.131,0.464 -0.263,0.899 -0.394,1.306c-0.328,0.755 -0.787,1.335 -1.377,1.742c-0.525,0.348 -1.312,0.551 -2.362,0.609c-0.459,0.058 -1.115,0.087 -1.968,0.087c-1.444,0 -3.412,-0.029 -5.905,-0.087c-4.723,-0.116 -10.529,-0.348 -17.417,-0.697c-6.626,-0.348 -12.367,-0.696 -17.221,-1.045c-2.559,-0.174 -4.527,-0.319 -5.905,-0.435c-0.787,-0.116 -1.41,-0.203 -1.87,-0.261c-0.984,-0.116 -1.705,-0.378 -2.164,-0.784c-0.263,-0.174 -0.492,-0.377 -0.689,-0.61c-0.591,-0.348 -1.05,-0.841 -1.378,-1.48c-0.459,-0.755 -0.853,-3.541 -1.181,-8.36c-0.262,-3.425 -0.525,-8.244 -0.787,-14.456c-0.066,-1.858 -0.164,-4.18 -0.295,-6.967c0,-0.464 0,-1.016 0,-1.655c-0.066,-0.812 -0.099,-1.335 -0.099,-1.567c-0.065,-1.277 -0.098,-2.293 -0.098,-3.048c-0.197,-4.354 -0.328,-6.996 -0.394,-7.925c-0.131,-1.451 -0.229,-3.57 -0.295,-6.357c-0.066,-0.29 -0.098,-0.523 -0.098,-0.697c0,-1.858 -0.033,-3.309 -0.099,-4.354c0,-0.058 -0.016,-0.174 -0.049,-0.348c-0.033,-0.174 -0.066,-0.378 -0.098,-0.61c-0.033,-0.232 -0.05,-0.406 -0.05,-0.522c-0.065,-0.581 -0.098,-1.132 -0.098,-1.655c-0.066,-1.045 -0.066,-1.887 0,-2.525c0.066,-0.523 0.197,-0.987 0.394,-1.394c0.196,-0.406 0.426,-0.755 0.688,-1.045c0.591,-0.464 1.28,-0.755 2.067,-0.871c3.083,-0.29 6.659,-0.377 10.726,-0.261Z" style="fill:#379b34;"/><path d="M473.114,30.533c-2.887,-2.67 -6.265,-4.325 -10.136,-4.963c-5.248,-0.871 -10.037,0.261 -14.367,3.396c-4.592,3.309 -7.741,8.273 -9.447,14.891c-0.066,0.581 -0.098,1.132 -0.098,1.655c-0.525,6.735 0.59,12.279 3.345,16.633c2.887,4.645 7.381,6.967 13.482,6.967c3.083,0 5.38,-0.116 6.888,-0.348c2.231,-0.291 4.199,-0.9 5.905,-1.829c3.936,-2.09 6.855,-4.964 8.758,-8.622c0.131,-0.29 0.262,-0.58 0.394,-0.87c0.524,-1.22 0.852,-2.352 0.984,-3.397c0.459,-2.786 0.41,-5.863 -0.148,-9.231c-0.558,-3.367 -1.558,-6.589 -3.001,-9.666c-0.788,-1.626 -1.64,-3.164 -2.559,-4.616Z" style="fill:#379b34;"/><path d="M459.14,32.623c1.837,-0.522 3.576,-0.479 5.216,0.131c1.64,0.61 2.919,1.698 3.838,3.266c1.377,1.277 2.394,2.903 3.05,4.876c1.181,3.194 1.411,6.648 0.689,10.364c-0.787,3.947 -2.46,7.082 -5.019,9.405c-3.149,2.903 -7.019,3.89 -11.611,2.961c-3.084,-0.639 -5.282,-2.729 -6.594,-6.27c-1.049,-2.729 -1.41,-5.864 -1.082,-9.406c0.394,-3.599 1.378,-6.734 2.952,-9.405c2.099,-3.309 4.822,-5.283 8.168,-5.922c0.131,0 0.262,0 0.393,0Z" style="fill:#379b34;"/><path d="M369.227,0.991c5.707,-0.116 11.251,-0.145 16.63,-0.087c5.249,0.116 12.99,0.174 23.224,0.174c7.938,0 12.957,0.072 15.056,0.217c2.099,0.146 3.838,0.508 5.216,1.089c1.18,0.523 2.001,1.118 2.46,1.785c0.459,0.668 0.771,1.669 0.935,3.005c0.164,1.335 0.246,3.628 0.246,6.879c0,4.761 -0.164,8.738 -0.492,11.931c-0.263,2.38 -0.378,4.282 -0.345,5.704c0.033,1.422 0.213,4.688 0.541,9.797c0.591,8.244 0.984,14.253 1.181,18.027c0,0.174 0,0.464 0,0.87c0.328,7.025 0.476,11.176 0.443,12.454c-0.033,1.277 -0.344,2.235 -0.935,2.873l-0.098,0.087c-1.312,1.394 -4.018,2.323 -8.119,2.787c-4.1,0.465 -12.284,0.784 -24.552,0.958c-17.057,0.232 -28.029,0.29 -32.917,0.174c-4.887,-0.116 -8.348,-0.522 -10.381,-1.219c-2.362,-0.755 -3.97,-2.656 -4.822,-5.704c-0.853,-3.048 -1.181,-8.084 -0.984,-15.109c0.131,-6.561 0.918,-16.488 2.361,-29.783c0.853,-7.664 1.362,-13.643 1.526,-17.94c0.164,-4.296 0.311,-6.589 0.442,-6.879c0.263,-0.639 1.411,-1.161 3.445,-1.568c1.049,-0.232 4.362,-0.406 9.939,-0.522Z" style="fill:#379b34;"/><path d="M413.312,12.66l-0.196,3.483c-0.132,2.032 -0.361,4.993 -0.689,8.883c-0.328,4.006 -0.492,6.909 -0.492,8.709l0,3.222l-1.083,-0.175l-2.853,-0.174l-1.673,0l-0.099,-3.309c0,-5.283 -1.394,-9.42 -4.182,-12.409c-2.788,-2.99 -6.61,-4.456 -11.464,-4.398c-4.133,0.058 -8.053,1.233 -11.76,3.527c-3.706,2.293 -6.642,5.355 -8.807,9.187c-4.133,7.373 -4.264,15.008 -0.394,22.903c2.887,5.864 6.921,9.928 12.104,12.192c2.034,0.929 4.363,1.481 6.987,1.655c3.346,0.29 6.478,-0.116 9.398,-1.219c2.919,-1.103 5.264,-2.758 7.036,-4.964c1.574,-2.032 2.296,-4.325 2.165,-6.88c-0.066,-1.045 -0.181,-1.814 -0.345,-2.308c-0.164,-0.493 -0.508,-1.233 -1.033,-2.22c-0.853,-1.452 -1.689,-2.337 -2.509,-2.656c-0.82,-0.32 -2.739,-0.479 -5.757,-0.479c-3.215,-0.058 -5.281,-0.145 -6.2,-0.262l-1.673,-0.261l0,-2.874l3.543,-0.174c2.034,-0.116 5.117,-0.058 9.25,0.174c4.527,0.233 9.054,0.407 13.58,0.523c5.183,0.116 7.84,0.232 7.971,0.348c0.066,0.058 -0.066,0.755 -0.394,2.09c-0.196,0.871 -0.36,1.408 -0.492,1.611c-0.131,0.204 -0.36,0.276 -0.688,0.218c-1.575,-0.464 -3.002,-0.479 -4.281,-0.043c-1.279,0.435 -2.149,1.233 -2.608,2.394c-0.262,0.581 -0.459,3.252 -0.59,8.012c-0.394,8.534 -0.755,12.976 -1.083,13.324l-2.46,-0.087l-2.362,-0.174l0.197,-2.264c0.131,-1.394 0.082,-2.395 -0.147,-3.005c-0.23,-0.609 -0.706,-1.059 -1.427,-1.35c-1.575,-0.638 -3.412,0.117 -5.511,2.265c-3.805,3.773 -8.102,5.892 -12.891,6.357c-6.036,0.638 -11.481,-0.784 -16.336,-4.267c-4.854,-3.484 -8.331,-8.477 -10.431,-14.979c-1.771,-5.283 -2.132,-10.624 -1.082,-16.024c1.312,-7.14 4.166,-12.845 8.561,-17.112c4.396,-4.267 9.775,-6.575 16.139,-6.923c2.558,-0.174 4.723,-0.058 6.495,0.348c1.115,0.291 3.017,1.016 5.707,2.178c2.624,1.103 4.445,1.77 5.462,2.003c1.017,0.232 1.886,0.203 2.607,-0.088c1.509,-0.522 2.165,-1.625 1.969,-3.309l-0.099,-1.219l4.92,0Z" style="fill:#379b34;"/><path d="M302.655,78.12c-2.755,0.29 -5.445,0.203 -8.069,-0.262c-0.722,-0.174 -1.411,-0.348 -2.067,-0.522c-0.197,0 -0.361,0 -0.492,0c-2.821,-0.291 -5.084,-0.581 -6.79,-0.871c-2.361,-0.465 -3.936,-0.987 -4.723,-1.568c-0.722,-0.58 -1.247,-1.48 -1.575,-2.699c-0.262,-0.755 -0.459,-1.713 -0.59,-2.874c-0.263,-1.858 -0.427,-4.238 -0.492,-7.141c0,-2.09 0,-4.645 0,-7.663c0,-0.117 0.016,-0.421 0.049,-0.915c0.033,-0.493 0.049,-0.769 0.049,-0.827l0,-3.658c-0.065,-3.89 -0.033,-6.967 0.099,-9.231c0.328,-5.515 1.279,-9.724 2.853,-12.627c0.066,-0.232 0.164,-0.464 0.296,-0.697c0.393,-1.335 1.016,-2.293 1.869,-2.873c1.181,-0.987 3.117,-1.597 5.806,-1.829c1.706,-0.116 3.904,-0.116 6.593,0c1.313,0.058 2.854,0.174 4.626,0.348c0.131,0 0.639,0.044 1.525,0.131c0.885,0.087 1.427,0.13 1.624,0.13c0.984,0.116 1.672,0.174 2.066,0.174c4.789,0.117 10.234,0 16.335,-0.348c0.197,0 0.738,-0.029 1.624,-0.087c0.886,-0.058 1.394,-0.087 1.525,-0.087c1.181,-0.058 2.165,-0.116 2.953,-0.174c2.033,-0.058 3.706,-0.058 5.018,0c3.608,0.232 6.331,1.277 8.168,3.135c1.706,1.8 2.854,4.702 3.444,8.708c0.394,3.193 0.591,8.302 0.591,15.327c0,1.103 0.164,3.426 0.492,6.967c0.196,2.322 0.328,4.151 0.393,5.486c0.131,3.019 0.099,5.574 -0.098,7.664c-0.328,2.845 -1.05,5.167 -2.165,6.967c-0.394,0.638 -0.919,1.132 -1.575,1.48c-1.443,0.755 -5.379,1.19 -11.808,1.306c-5.445,0.058 -11.842,-0.058 -19.189,-0.348c-2.887,-0.174 -5.675,-0.348 -8.365,-0.522Z" style="fill:#379b34;"/><path d="M310.134,28.917c2.755,0.406 5.248,1.132 7.479,2.177c0.656,0.58 1.377,1.306 2.165,2.177c0.197,0.232 0.689,0.813 1.476,1.742c0.656,1.277 1.279,2.67 1.869,4.18c0.263,0.754 0.558,1.538 0.886,2.351c0.131,1.393 0.361,3.686 0.689,6.88l0,0.174c0.459,4.644 0.787,7.954 0.984,9.927c0.066,0.871 0.098,1.394 0.098,1.568c0,0.116 0,0.203 0,0.261c0.066,0.871 0.099,1.684 0.099,2.439c0,0.696 0.279,1.306 0.836,1.828c0.558,0.523 1.247,0.784 2.067,0.784c0.82,0 1.525,-0.261 2.116,-0.784c0.59,-0.522 0.885,-1.132 0.885,-1.828c0,-0.697 -0.033,-1.394 -0.098,-2.09c0,-0.755 -0.033,-1.539 -0.099,-2.352c-0.065,-0.348 -0.098,-0.551 -0.098,-0.609c0,-0.523 0,-0.9 0,-1.132c0.131,-0.058 0.295,-0.117 0.492,-0.175c0.525,-0.174 1.509,-0.464 2.952,-0.87c0.066,3.193 0.066,5.979 0,8.36c-0.065,2.032 -0.197,3.686 -0.393,4.964c-0.132,0.58 -0.263,1.045 -0.394,1.393l0,0.174c-1.312,1.393 -2.526,2.351 -3.641,2.874c-0.787,0.348 -1.542,0.464 -2.263,0.348c-1.312,-0.174 -2.985,-1.132 -5.019,-2.874l-0.295,-0.261c-0.132,-0.174 -0.328,-0.363 -0.591,-0.566c-0.262,-0.203 -0.525,-0.435 -0.787,-0.697c-0.262,-0.261 -0.525,-0.493 -0.787,-0.696c-0.263,-0.203 -0.459,-0.363 -0.591,-0.479c-0.656,-0.523 -1.246,-0.9 -1.771,-1.132c-0.984,-0.465 -1.968,-0.639 -2.952,-0.523c-0.591,0.058 -1.181,0.29 -1.771,0.697c-0.263,0.174 -0.591,0.406 -0.985,0.697c-0.328,0.29 -0.885,0.812 -1.672,1.567c-0.591,0.581 -1.017,0.987 -1.28,1.219c-0.197,0.174 -0.328,0.291 -0.393,0.349l-0.099,0.087c-1.968,0.929 -4.198,1.538 -6.691,1.828c-3.281,-0.174 -6.233,-0.406 -8.857,-0.696c-3.87,-1.103 -6.429,-3.135 -7.675,-6.096c-1.247,-2.903 -1.706,-5.428 -1.378,-7.577c0.197,-1.683 0.951,-3.135 2.263,-4.354c2.099,-1.858 5.74,-3.396 10.923,-4.615c0.459,-0.058 0.886,-0.145 1.279,-0.262c0.197,-0.058 0.361,-0.116 0.493,-0.174c1.049,-0.174 2.296,-0.406 3.739,-0.696c0.131,0 0.705,-0.087 1.722,-0.262c1.017,-0.174 1.657,-0.29 1.919,-0.348c2.23,-0.406 3.969,-0.784 5.215,-1.132c1.837,-0.465 3.281,-1.016 4.33,-1.655c1.64,-0.987 2.559,-2.264 2.756,-3.831c0.131,-1.452 -0.427,-2.961 -1.673,-4.529c-1.181,-1.451 -2.592,-2.409 -4.232,-2.874c-0.787,-0.232 -1.64,-0.406 -2.558,-0.522c-0.131,0 -0.263,-0.029 -0.394,-0.087c-1.771,-0.581 -3.903,-0.813 -6.396,-0.697c-1.444,0.058 -2.69,0.261 -3.74,0.61c-1.574,0.464 -2.689,1.219 -3.345,2.264c-0.394,0.522 -0.624,1.161 -0.689,1.916c0,0.406 0.065,0.871 0.197,1.393c0.065,0.465 0.295,1.277 0.688,2.438c0.197,0.523 0.328,0.929 0.394,1.22c0.197,0.638 0.295,1.132 0.295,1.48c-0.065,0.116 -0.098,0.203 -0.098,0.261c0,0.058 -0.033,0.087 -0.099,0.087c-0.065,0.058 -0.131,0.088 -0.196,0.088c-0.263,0.058 -0.525,0.116 -0.788,0.174c-0.918,0.116 -2.099,0.116 -3.542,0c-0.984,-0.116 -1.804,-0.349 -2.46,-0.697c-1.181,-0.697 -1.805,-1.597 -1.87,-2.7c-0.131,-1.161 0.262,-2.554 1.181,-4.18c0.787,-1.335 1.82,-2.627 3.1,-3.875c1.279,-1.248 2.542,-2.221 3.788,-2.917c1.771,-0.581 3.674,-0.987 5.708,-1.219c2.361,0 4.461,-0.03 6.298,-0.088l1.279,0.175Z" style="fill:#379b34;"/><path d="M306.099,52.517c1.837,-0.697 3.543,-1.162 5.117,-1.394c1.378,-0.232 2.592,-0.232 3.641,0c1.706,0.291 2.887,1.045 3.543,2.264c0.59,1.162 0.623,2.497 0.098,4.006c-0.459,1.22 -1.279,2.584 -2.46,4.093c-2.296,2.961 -5.248,4.79 -8.856,5.487c-1.509,0.232 -3.018,0.261 -4.527,0.087c-2.362,-0.116 -4.363,-0.581 -6.003,-1.394c-0.787,-0.464 -1.41,-0.958 -1.869,-1.48c-0.394,-0.523 -0.656,-1.074 -0.788,-1.655c-0.393,-0.522 -0.656,-1.074 -0.787,-1.654c-0.328,-1.394 -0.065,-2.671 0.787,-3.832c0.788,-1.045 2.034,-1.829 3.74,-2.351c2.821,-0.987 5.609,-1.713 8.364,-2.177Z" style="fill:#379b34;"/><path d="M230.77,3.255c0.196,-0.116 4.018,-0.145 11.464,-0.087c7.446,0.058 12.612,0.145 15.499,0.261c6.035,0.29 9.972,0.726 11.809,1.306c1.377,0.465 2.427,1.495 3.149,3.092c0.721,1.596 1.443,4.398 2.164,8.403c1.509,9.173 2.461,21.206 2.854,36.097c0.394,14.892 0,23.353 -1.181,25.385c-0.656,1.161 -1.837,2.061 -3.542,2.7c-1.509,0.581 -3.182,0.972 -5.019,1.176c-1.837,0.203 -4.986,0.333 -9.447,0.392c-7.413,0.116 -15.515,-0.262 -24.306,-1.133c-2.428,-0.232 -6.233,-0.464 -11.415,-0.696c-8.332,-0.291 -12.924,-0.813 -13.777,-1.568c-1.115,-0.871 -1.903,-2.569 -2.362,-5.094c-0.459,-2.526 -0.689,-6.488 -0.689,-11.887c0,-6.677 0.361,-14.863 1.083,-24.558c0.393,-4.645 0.59,-10.131 0.59,-16.459c0,-6.619 0.197,-10.479 0.591,-11.583c0.787,-2.264 2.312,-3.744 4.576,-4.441c2.263,-0.697 6.478,-1.074 12.645,-1.132c3.477,0 5.248,-0.058 5.314,-0.174Z" style="fill:#379b34;"/><path d="M231.655,15.708l0,3.483c0,2.671 0.361,4.776 1.083,6.314c0.721,1.539 1.869,2.685 3.444,3.44c1.181,0.522 2.198,0.856 3.051,1.001c0.852,0.145 2.591,0.276 5.215,0.392l4.724,0.174l0.196,3.31l-4.133,0c-4.526,0.058 -7.479,0.232 -8.856,0.522c-1.378,0.29 -2.329,0.9 -2.854,1.829c-0.525,1.045 -0.558,6.415 -0.098,16.111c0.328,5.457 0.688,8.679 1.082,9.666c0.853,2.09 1.755,3.585 2.706,4.485c0.951,0.9 2.182,1.437 3.69,1.611c1.641,0.174 3.166,-0.174 4.576,-1.045c1.411,-0.871 2.542,-2.148 3.395,-3.832c0.46,-0.813 0.722,-1.524 0.788,-2.133c0.065,-0.61 0.098,-2.25 0.098,-4.921l-0.098,-5.312l4.625,0l0,2.526c0.065,3.309 -0.082,5.892 -0.443,7.75c-0.361,1.858 -1.001,3.629 -1.919,5.312c-1.181,2.206 -2.624,3.803 -4.33,4.79c-0.59,0.406 -1.164,0.668 -1.722,0.784c-0.558,0.116 -1.657,0.232 -3.297,0.348c-1.705,0.174 -2.821,0.247 -3.345,0.218c-0.525,-0.029 -1.083,-0.16 -1.673,-0.392c-1.575,-0.639 -3.117,-1.64 -4.625,-3.004c-1.509,-1.365 -2.723,-2.86 -3.641,-4.485c-0.394,-0.697 -0.607,-1.742 -0.64,-3.135c-0.033,-1.394 0.115,-5.196 0.443,-11.409c0.262,-6.095 0.131,-10.261 -0.394,-12.496c-0.525,-2.235 -1.673,-3.556 -3.444,-3.963c-0.787,-0.232 -1.968,-0.29 -3.543,-0.174l-2.263,0.174l0,-0.783c0,-0.465 0.066,-1.132 0.197,-2.003l0.197,-1.219l2.263,-0.523c2.69,-0.581 4.527,-1.655 5.511,-3.222c0.262,-0.523 0.426,-1.06 0.492,-1.611l0,-8.578l3.542,0Z" style="fill:#379b34;"/><path d="M192.588,9.351c3.149,-0.29 5.839,-0.174 8.069,0.348c2.231,0.523 3.74,1.364 4.527,2.526c0.853,1.219 1.427,3.323 1.722,6.313c0.295,2.99 0.673,10.146 1.132,21.467c0.197,5.109 0.492,8.708 0.886,10.798c1.508,7.664 1.869,14.514 1.082,20.552c-0.328,2.613 -0.771,4.282 -1.328,5.008c-0.558,0.725 -1.821,1.262 -3.789,1.611c-4.396,0.87 -10.694,1.19 -18.894,0.958c-3.936,-0.117 -12.366,-0.204 -25.29,-0.262c-9.316,0 -15.22,-0.072 -17.713,-0.217c-2.493,-0.146 -4.133,-0.479 -4.921,-1.002c-1.049,-0.755 -1.705,-2.525 -1.968,-5.312c-0.197,-1.8 -0.295,-7.591 -0.295,-17.373c0,-9.783 0.098,-18.68 0.295,-26.692c0.066,-4.993 0.181,-8.52 0.345,-10.581c0.164,-2.061 0.426,-3.512 0.787,-4.354c0.361,-0.842 0.968,-1.437 1.82,-1.785c0.788,-0.291 8.135,-0.465 22.043,-0.523c10.366,-0.058 16.664,-0.116 18.894,-0.174c2.231,-0.058 4.494,-0.232 6.79,-0.522c2.756,-0.407 4.691,-0.668 5.806,-0.784Z" style="fill:#379b34;"/><path d="M151.75,29.293c4.109,-0.06 6.701,-0.175 7.872,-0.348c1.181,-0.232 1.804,-0.348 1.87,-0.348l-0.295,1.045c-0.263,1.103 -0.131,2.002 0.393,2.699c0.525,0.697 1.345,1.045 2.46,1.045c0.657,0 1.132,-0.101 1.427,-0.305c0.296,-0.203 1.099,-0.943 2.411,-2.22c1.116,-1.103 3.838,-1.684 8.168,-1.742c4.067,0 7.61,0.668 10.628,2.003c2.296,0.987 3.936,2.221 4.92,3.701c0.984,1.481 1.411,3.295 1.279,5.443c-0.459,5.747 -3.772,7.605 -9.939,5.573c-0.918,-0.29 -1.935,-0.856 -3.05,-1.698c-1.115,-0.842 -1.673,-1.466 -1.673,-1.872c0,-0.697 1.082,-1.306 3.247,-1.829c1.575,-0.406 2.706,-0.871 3.395,-1.393c0.689,-0.523 1.099,-1.307 1.23,-2.352c0.197,-1.277 -0.59,-2.438 -2.361,-3.483c-0.656,-0.406 -1.804,-0.842 -3.445,-1.306c-1.64,-0.465 -2.853,-0.697 -3.641,-0.697c-2.624,0 -5.018,0.639 -7.183,1.916c-2.165,1.277 -3.707,2.961 -4.625,5.051c-0.656,1.625 -1.214,4.093 -1.673,7.402c-0.459,3.309 -0.689,6.619 -0.689,9.928c0,5.399 1.082,8.998 3.247,10.798c0.394,0.291 0.771,0.479 1.132,0.566c0.361,0.087 1.132,0.131 2.313,0.131c1.836,0 3.017,-0.087 3.542,-0.261c0.394,-0.058 0.64,-0.029 0.738,0.087c0.099,0.116 0.181,0.551 0.246,1.306c0.131,1.103 0.263,1.771 0.394,2.003c0,0.116 -0.312,0.218 -0.935,0.305c-0.623,0.087 -1.902,0.159 -3.838,0.217c-1.935,0.059 -4.444,0.117 -7.528,0.175c-3.083,0.058 -7.249,0.116 -12.497,0.174l-3.543,0.087l-0.197,-0.697c-0.131,-0.406 -0.262,-1.161 -0.393,-2.264c-0.132,-0.755 -0.164,-1.205 -0.099,-1.35c0.066,-0.145 0.263,-0.276 0.591,-0.392c0.459,-0.058 1.41,0.087 2.853,0.436c2.296,0.58 4.101,0.711 5.413,0.392c1.312,-0.32 2.329,-1.118 3.05,-2.395c0.394,-0.639 0.623,-1.51 0.689,-2.613c0.066,-1.103 0.164,-4.499 0.295,-10.189c0.197,-7.605 0.148,-12.453 -0.147,-14.543c-0.296,-2.09 -1.165,-3.628 -2.608,-4.615c-0.525,-0.349 -1.017,-0.552 -1.476,-0.61c-0.459,-0.058 -1.607,-0.087 -3.444,-0.087c-2.034,0 -3.199,-0.058 -3.494,-0.174c-0.295,-0.116 -0.541,-0.697 -0.738,-1.742l-0.197,-0.958l5.905,0Z" style="fill:#379b34;"/><path d="M86.211,8.045c1.116,-0.233 2.428,-0.436 3.937,-0.61c4.526,-0.581 10.398,-0.871 17.614,-0.871l0.099,0c4.986,-0.29 9.184,-0.406 12.596,-0.348c2.624,0.058 4.789,0.232 6.494,0.522c1.116,0.174 2.034,0.378 2.756,0.61c0.525,0.058 1.017,0.116 1.476,0.174c0.853,0.116 1.542,0.232 2.066,0.348c1.05,0.233 1.837,0.61 2.362,1.132c0.394,0.465 0.689,0.958 0.886,1.481c0.065,0.232 0.098,0.493 0.098,0.784l0,0.348l-0.098,0.087c0,4.819 -0.197,11.437 -0.591,19.855c-0.065,0.465 -0.131,1.191 -0.196,2.178c-0.328,6.792 -0.558,11.872 -0.689,15.239c0,1.916 0.065,4.819 0.197,8.709c0,0.929 0,1.654 0,2.177c0.196,5.399 0.065,9.724 -0.394,12.976c0,0.058 -0.033,0.203 -0.098,0.435l0,0.087c0,0.348 -0.033,0.668 -0.099,0.958c-0.131,0.464 -0.262,0.9 -0.393,1.306c-0.329,0.755 -0.788,1.336 -1.378,1.742c-0.525,0.348 -1.312,0.552 -2.362,0.61c-0.459,0.058 -1.115,0.087 -1.968,0.087c-1.443,0 -3.411,-0.029 -5.904,-0.087c-4.724,-0.117 -10.53,-0.349 -17.418,-0.697c-6.626,-0.348 -12.367,-0.697 -17.221,-1.045c-2.559,-0.174 -4.527,-0.319 -5.905,-0.436c-0.787,-0.116 -1.41,-0.203 -1.869,-0.261c-0.984,-0.116 -1.706,-0.377 -2.165,-0.784c-0.263,-0.174 -0.492,-0.377 -0.689,-0.609c-0.59,-0.348 -1.05,-0.842 -1.378,-1.481c-0.459,-0.754 -0.853,-3.541 -1.181,-8.36c-0.262,-3.425 -0.524,-8.244 -0.787,-14.456c-0.065,-1.858 -0.164,-4.18 -0.295,-6.967c0,-0.464 0,-1.016 0,-1.654c-0.066,-0.813 -0.098,-1.335 -0.098,-1.568c-0.066,-1.277 -0.099,-2.293 -0.099,-3.048c-0.197,-4.354 -0.328,-6.995 -0.394,-7.924c-0.131,-1.452 -0.229,-3.571 -0.295,-6.358c-0.065,-0.29 -0.098,-0.522 -0.098,-0.696c0,-1.858 -0.033,-3.309 -0.099,-4.354c0,-0.059 -0.016,-0.175 -0.049,-0.349c-0.033,-0.174 -0.065,-0.377 -0.098,-0.609c-0.033,-0.233 -0.049,-0.407 -0.049,-0.523c-0.066,-0.581 -0.099,-1.132 -0.099,-1.655c-0.065,-1.045 -0.065,-1.886 0,-2.525c0.066,-0.523 0.197,-0.987 0.394,-1.393c0.197,-0.407 0.426,-0.755 0.689,-1.045c0.59,-0.465 1.279,-0.755 2.066,-0.871c3.084,-0.291 6.659,-0.378 10.726,-0.261Z" style="fill:#379b34;"/><path d="M117.209,31.993c-2.886,-2.671 -6.265,-4.325 -10.135,-4.964c-5.249,-0.871 -10.038,0.261 -14.368,3.396c-4.592,3.31 -7.741,8.273 -9.447,14.892c-0.065,0.58 -0.098,1.132 -0.098,1.654c-0.525,6.735 0.59,12.279 3.346,16.634c2.886,4.644 7.38,6.966 13.481,6.966c3.084,0 5.38,-0.116 6.889,-0.348c2.23,-0.29 4.198,-0.9 5.904,-1.829c3.936,-2.09 6.856,-4.964 8.758,-8.621c0.131,-0.29 0.263,-0.581 0.394,-0.871c0.525,-1.219 0.853,-2.351 0.984,-3.396c0.459,-2.787 0.41,-5.864 -0.148,-9.231c-0.557,-3.368 -1.558,-6.59 -3.001,-9.667c-0.787,-1.625 -1.64,-3.164 -2.559,-4.615Z" style="fill:#379b34;"/><path d="M103.236,34.083c1.837,-0.523 3.575,-0.479 5.215,0.13c1.64,0.61 2.92,1.699 3.838,3.266c1.378,1.277 2.395,2.903 3.051,4.877c1.18,3.193 1.41,6.647 0.688,10.363c-0.787,3.948 -2.46,7.083 -5.018,9.405c-3.149,2.903 -7.02,3.89 -11.612,2.961c-3.084,-0.639 -5.281,-2.729 -6.593,-6.27c-1.05,-2.729 -1.411,-5.864 -1.083,-9.405c0.394,-3.6 1.378,-6.735 2.952,-9.405c2.1,-3.31 4.822,-5.284 8.168,-5.922c0.131,0 0.262,0 0.394,0Z" style="fill:#379b34;"/><path d="M64.956,74.839l1.771,-0.784c1.181,-0.523 1.968,-0.987 2.362,-1.394c0.656,-0.58 1.05,-1.944 1.181,-4.093c0.131,-2.148 0.197,-7.257 0.197,-15.326c0,-24.965 -1.116,-39.16 -3.346,-42.585c-0.656,-1.161 -2.067,-1.974 -4.232,-2.438c-2.821,-0.639 -8.069,-1.118 -15.745,-1.437c-7.675,-0.32 -16.04,-0.363 -25.093,-0.131c-10.956,0.232 -17.484,0.813 -19.583,1.742c-0.065,0.058 -0.164,0.116 -0.295,0.174c-0.787,0.348 -1.263,1.466 -1.427,3.353c-0.164,1.887 -0.246,8.345 -0.246,19.376c0.066,1.452 0.098,2.555 0.098,3.309c0,23.571 0.328,35.908 0.984,37.011c0.525,1.103 1.87,1.771 4.035,2.003c1.706,0.233 8.988,0.378 21.846,0.436c12.99,0.058 20.272,0.203 21.846,0.435c1.509,0.174 4.461,0.29 8.857,0.349l6.79,0Z" style="fill:#379b34;"/><path d="M6.995,68.481l0,-3.396l3.444,-0.087c3.083,-0.058 5.133,-0.363 6.15,-0.914c1.017,-0.552 1.722,-1.728 2.116,-3.527c0.197,-0.871 0.197,-5.443 0,-13.716c-0.197,-8.273 -0.394,-13.774 -0.59,-16.503c-0.656,-6.444 -1.903,-10.073 -3.74,-10.885c-0.525,-0.233 -1.705,-0.407 -3.542,-0.523l-2.756,-0.087l-0.393,-1.916c-0.263,-1.277 -0.328,-1.945 -0.197,-2.003c0.065,-0.116 2.329,-0.261 6.79,-0.435c7.216,-0.232 11.316,-0.378 12.301,-0.436c4.526,-0.174 8.298,-0.261 11.316,-0.261c2.821,0 4.609,0.029 5.363,0.087c0.755,0.058 1.755,0.29 3.002,0.697c3.017,0.929 5.838,2.554 8.463,4.877c2.886,2.554 4.953,5.428 6.199,8.621c0.394,1.103 0.64,1.916 0.738,2.438c0.099,0.523 0.115,1.423 0.049,2.7c-0.131,1.916 -0.328,3.077 -0.59,3.483c-0.262,0.465 -0.918,1.002 -1.968,1.611c-1.05,0.61 -2.231,1.147 -3.543,1.612c-2.165,0.812 -5.018,1.48 -8.561,2.003c-3.543,0.522 -6.528,0.754 -8.955,0.696c-5.314,-0.174 -8.43,0 -9.349,0.523c-0.918,0.522 -1.459,1.19 -1.623,2.003c-0.164,0.812 -0.246,3.135 -0.246,6.966c0,5.109 0.213,8.506 0.639,10.189c0.427,1.684 1.329,2.816 2.707,3.397c0.721,0.348 1.377,0.551 1.968,0.609c0.59,0.058 1.869,0.087 3.838,0.087c2.82,0.058 4.231,0.174 4.231,0.349c0,0.116 -0.066,0.464 -0.197,1.045l-0.197,0.783l-13.383,0l-16.434,-0.087l-3.05,0Z" style="fill:#379b34;"/><path d="M29.53,15.36c1.312,-0.233 2.739,-0.218 4.28,0.043c1.542,0.261 4.511,1.06 8.906,2.395c3.018,0.929 5.15,1.684 6.396,2.264c2.821,1.277 4.822,3.048 6.003,5.312c0.656,1.045 0.984,2.352 0.984,3.919c-0.065,1.452 -0.328,2.671 -0.787,3.658c-0.459,0.987 -1.312,2.003 -2.559,3.048c-1.574,1.451 -3.493,2.511 -5.756,3.178c-2.264,0.668 -5.462,1.176 -9.595,1.524c-3.674,0.291 -6.183,0.334 -7.528,0.131c-1.345,-0.203 -2.28,-0.711 -2.804,-1.524c-0.328,-0.639 -0.558,-2.99 -0.689,-7.054c-0.197,-4.064 -0.394,-6.502 -0.591,-7.315c-0.197,-0.871 -0.295,-2.061 -0.295,-3.571c0,-1.567 0.23,-2.728 0.689,-3.483c0.722,-1.335 1.837,-2.177 3.346,-2.525Z" style="fill:#379b34;"/><path d="M64.956,74.839l-6.79,0c-4.396,-0.059 -7.348,-0.175 -8.857,-0.349c-1.574,-0.232 -8.856,-0.377 -21.846,-0.435c-12.858,-0.058 -20.14,-0.203 -21.846,-0.436c-2.165,-0.232 -3.51,-0.9 -4.035,-2.003c-0.656,-1.103 -0.984,-13.44 -0.984,-37.011c0,-0.754 -0.032,-1.857 -0.098,-3.309c0,-11.031 0.082,-17.489 0.246,-19.376c0.164,-1.887 0.64,-3.005 1.427,-3.353c0.131,-0.058 0.23,-0.116 0.295,-0.174c2.099,-0.929 8.627,-1.51 19.583,-1.742c9.053,-0.232 17.418,-0.189 25.093,0.131c7.676,0.319 12.924,0.798 15.745,1.437c2.165,0.464 3.576,1.277 4.232,2.438c2.23,3.425 3.346,17.62 3.346,42.585c0,8.069 -0.066,13.178 -0.197,15.326c-0.131,2.149 -0.525,3.513 -1.181,4.093c-0.394,0.407 -1.181,0.871 -2.362,1.394l-1.771,0.784Z" style="fill:#819b34;"/><path d="M10.045,68.481l16.434,0.087l13.383,0l0.197,-0.783c0.131,-0.581 0.197,-0.929 0.197,-1.045c0,-0.175 -1.411,-0.291 -4.231,-0.349c-1.969,0 -3.248,-0.029 -3.838,-0.087c-0.591,-0.058 -1.247,-0.261 -1.968,-0.609c-1.378,-0.581 -2.28,-1.713 -2.707,-3.397c-0.426,-1.683 -0.639,-5.08 -0.639,-10.189c0,-3.831 0.082,-6.154 0.246,-6.966c0.164,-0.813 0.705,-1.481 1.623,-2.003c0.919,-0.523 4.035,-0.697 9.349,-0.523c2.427,0.058 5.412,-0.174 8.955,-0.696c3.543,-0.523 6.396,-1.191 8.561,-2.003c1.312,-0.465 2.493,-1.002 3.543,-1.612c1.05,-0.609 1.706,-1.146 1.968,-1.611c0.262,-0.406 0.459,-1.567 0.59,-3.483c0.066,-1.277 0.05,-2.177 -0.049,-2.7c-0.098,-0.522 -0.344,-1.335 -0.738,-2.438c-1.246,-3.193 -3.313,-6.067 -6.199,-8.621c-2.625,-2.323 -5.446,-3.948 -8.463,-4.877c-1.247,-0.407 -2.247,-0.639 -3.002,-0.697c-0.754,-0.058 -2.542,-0.087 -5.363,-0.087c-3.018,0 -6.79,0.087 -11.316,0.261c-0.985,0.058 -5.085,0.204 -12.301,0.436c-4.461,0.174 -6.725,0.319 -6.79,0.435c-0.131,0.058 -0.066,0.726 0.197,2.003l0.393,1.916l2.756,0.087c1.837,0.116 3.017,0.29 3.542,0.523c1.837,0.812 3.084,4.441 3.74,10.885c0.196,2.729 0.393,8.23 0.59,16.503c0.197,8.273 0.197,12.845 0,13.716c-0.394,1.799 -1.099,2.975 -2.116,3.527c-1.017,0.551 -3.067,0.856 -6.15,0.914l-3.444,0.087l0,3.396l3.05,0Z" style="fill:#fff;"/><path d="M29.53,15.36c1.312,-0.233 2.739,-0.218 4.28,0.043c1.542,0.261 4.511,1.06 8.906,2.395c3.018,0.929 5.15,1.684 6.396,2.264c2.821,1.277 4.822,3.048 6.003,5.312c0.656,1.045 0.984,2.352 0.984,3.919c-0.065,1.452 -0.328,2.671 -0.787,3.658c-0.459,0.987 -1.312,2.003 -2.559,3.048c-1.574,1.451 -3.493,2.511 -5.756,3.178c-2.264,0.668 -5.462,1.176 -9.595,1.524c-3.674,0.291 -6.183,0.334 -7.528,0.131c-1.345,-0.203 -2.28,-0.711 -2.804,-1.524c-0.328,-0.639 -0.558,-2.99 -0.689,-7.054c-0.197,-4.064 -0.394,-6.502 -0.591,-7.315c-0.197,-0.871 -0.295,-2.061 -0.295,-3.571c0,-1.567 0.23,-2.728 0.689,-3.483c0.722,-1.335 1.837,-2.177 3.346,-2.525Z" style="fill:#819b34;"/><path d="M86.211,8.045c1.116,-0.233 2.428,-0.436 3.937,-0.61c4.526,-0.581 10.398,-0.871 17.614,-0.871l0.099,0c4.986,-0.29 9.184,-0.406 12.596,-0.348c2.624,0.058 4.789,0.232 6.494,0.522c1.116,0.174 2.034,0.378 2.756,0.61c0.525,0.058 1.017,0.116 1.476,0.174c0.853,0.116 1.542,0.232 2.066,0.348c1.05,0.233 1.837,0.61 2.362,1.132c0.394,0.465 0.689,0.958 0.886,1.481c0.065,0.232 0.098,0.493 0.098,0.784l0,0.348l-0.098,0.087c0,4.819 -0.197,11.437 -0.591,19.855c-0.065,0.465 -0.131,1.191 -0.196,2.178c-0.328,6.792 -0.558,11.872 -0.689,15.239c0,1.916 0.065,4.819 0.197,8.709c0,0.929 0,1.654 0,2.177c0.196,5.399 0.065,9.724 -0.394,12.976c0,0.058 -0.033,0.203 -0.098,0.435l0,0.087c0,0.348 -0.033,0.668 -0.099,0.958c-0.131,0.464 -0.262,0.9 -0.393,1.306c-0.329,0.755 -0.788,1.336 -1.378,1.742c-0.525,0.348 -1.312,0.552 -2.362,0.61c-0.459,0.058 -1.115,0.087 -1.968,0.087c-1.443,0 -3.411,-0.029 -5.904,-0.087c-4.724,-0.117 -10.53,-0.349 -17.418,-0.697c-6.626,-0.348 -12.367,-0.697 -17.221,-1.045c-2.559,-0.174 -4.527,-0.319 -5.905,-0.436c-0.787,-0.116 -1.41,-0.203 -1.869,-0.261c-0.984,-0.116 -1.706,-0.377 -2.165,-0.784c-0.263,-0.174 -0.492,-0.377 -0.689,-0.609c-0.59,-0.348 -1.05,-0.842 -1.378,-1.481c-0.459,-0.754 -0.853,-3.541 -1.181,-8.36c-0.262,-3.425 -0.524,-8.244 -0.787,-14.456c-0.065,-1.858 -0.164,-4.18 -0.295,-6.967c0,-0.464 0,-1.016 0,-1.654c-0.066,-0.813 -0.098,-1.335 -0.098,-1.568c-0.066,-1.277 -0.099,-2.293 -0.099,-3.048c-0.197,-4.354 -0.328,-6.995 -0.394,-7.924c-0.131,-1.452 -0.229,-3.571 -0.295,-6.358c-0.065,-0.29 -0.098,-0.522 -0.098,-0.696c0,-1.858 -0.033,-3.309 -0.099,-4.354c0,-0.059 -0.016,-0.175 -0.049,-0.349c-0.033,-0.174 -0.065,-0.377 -0.098,-0.609c-0.033,-0.233 -0.049,-0.407 -0.049,-0.523c-0.066,-0.581 -0.099,-1.132 -0.099,-1.655c-0.065,-1.045 -0.065,-1.886 0,-2.525c0.066,-0.523 0.197,-0.987 0.394,-1.393c0.197,-0.407 0.426,-0.755 0.689,-1.045c0.59,-0.465 1.279,-0.755 2.066,-0.871c3.084,-0.291 6.659,-0.378 10.726,-0.261Z" style="fill:#34729b;"/><path d="M117.209,31.993c-2.886,-2.671 -6.265,-4.325 -10.135,-4.964c-5.249,-0.871 -10.038,0.261 -14.368,3.396c-4.592,3.31 -7.741,8.273 -9.447,14.892c-0.065,0.58 -0.098,1.132 -0.098,1.654c-0.525,6.735 0.59,12.279 3.346,16.634c2.886,4.644 7.38,6.966 13.481,6.966c3.084,0 5.38,-0.116 6.889,-0.348c2.23,-0.29 4.198,-0.9 5.904,-1.829c3.936,-2.09 6.856,-4.964 8.758,-8.621c0.131,-0.29 0.263,-0.581 0.394,-0.871c0.525,-1.219 0.853,-2.351 0.984,-3.396c0.459,-2.787 0.41,-5.864 -0.148,-9.231c-0.557,-3.368 -1.558,-6.59 -3.001,-9.667c-0.787,-1.625 -1.64,-3.164 -2.559,-4.615Z" style="fill:#fff;"/><path d="M103.236,34.083c1.837,-0.523 3.575,-0.479 5.215,0.13c1.64,0.61 2.92,1.699 3.838,3.266c1.378,1.277 2.395,2.903 3.051,4.877c1.18,3.193 1.41,6.647 0.688,10.363c-0.787,3.948 -2.46,7.083 -5.018,9.405c-3.149,2.903 -7.02,3.89 -11.612,2.961c-3.084,-0.639 -5.281,-2.729 -6.593,-6.27c-1.05,-2.729 -1.411,-5.864 -1.083,-9.405c0.394,-3.6 1.378,-6.735 2.952,-9.405c2.1,-3.31 4.822,-5.284 8.168,-5.922c0.131,0 0.262,0 0.394,0Z" style="fill:#34729b;"/><path d="M192.588,9.351c3.149,-0.29 5.839,-0.174 8.069,0.348c2.231,0.523 3.74,1.364 4.527,2.526c0.853,1.219 1.427,3.323 1.722,6.313c0.295,2.99 0.673,10.146 1.132,21.467c0.197,5.109 0.492,8.708 0.886,10.798c1.508,7.664 1.869,14.514 1.082,20.552c-0.328,2.613 -0.771,4.282 -1.328,5.008c-0.558,0.725 -1.821,1.262 -3.789,1.611c-4.396,0.87 -10.694,1.19 -18.894,0.958c-3.936,-0.117 -12.366,-0.204 -25.29,-0.262c-9.316,0 -15.22,-0.072 -17.713,-0.217c-2.493,-0.146 -4.133,-0.479 -4.921,-1.002c-1.049,-0.755 -1.705,-2.525 -1.968,-5.312c-0.197,-1.8 -0.295,-7.591 -0.295,-17.373c0,-9.783 0.098,-18.68 0.295,-26.692c0.066,-4.993 0.181,-8.52 0.345,-10.581c0.164,-2.061 0.426,-3.512 0.787,-4.354c0.361,-0.842 0.968,-1.437 1.82,-1.785c0.788,-0.291 8.135,-0.465 22.043,-0.523c10.366,-0.058 16.664,-0.116 18.894,-0.174c2.231,-0.058 4.494,-0.232 6.79,-0.522c2.756,-0.407 4.691,-0.668 5.806,-0.784Z" style="fill:#9b3434;"/><path d="M145.845,29.293l0.197,0.958c0.197,1.045 0.443,1.626 0.738,1.742c0.295,0.116 1.46,0.174 3.494,0.174c1.837,0 2.985,0.029 3.444,0.087c0.459,0.058 0.951,0.261 1.476,0.61c1.443,0.987 2.312,2.525 2.608,4.615c0.295,2.09 0.344,6.938 0.147,14.543c-0.131,5.69 -0.229,9.086 -0.295,10.189c-0.066,1.103 -0.295,1.974 -0.689,2.613c-0.721,1.277 -1.738,2.075 -3.05,2.395c-1.312,0.319 -3.117,0.188 -5.413,-0.392c-1.443,-0.349 -2.394,-0.494 -2.853,-0.436c-0.328,0.116 -0.525,0.247 -0.591,0.392c-0.065,0.145 -0.033,0.595 0.099,1.35c0.131,1.103 0.262,1.858 0.393,2.264l0.197,0.697l3.543,-0.087c5.248,-0.058 9.414,-0.116 12.497,-0.174c3.084,-0.058 5.593,-0.116 7.528,-0.175c1.936,-0.058 3.215,-0.13 3.838,-0.217c0.623,-0.087 0.935,-0.189 0.935,-0.305c-0.131,-0.232 -0.263,-0.9 -0.394,-2.003c-0.065,-0.755 -0.147,-1.19 -0.246,-1.306c-0.098,-0.116 -0.344,-0.145 -0.738,-0.087c-0.525,0.174 -1.706,0.261 -3.542,0.261c-1.181,0 -1.952,-0.044 -2.313,-0.131c-0.361,-0.087 -0.738,-0.275 -1.132,-0.566c-2.165,-1.8 -3.247,-5.399 -3.247,-10.798c0,-3.309 0.23,-6.619 0.689,-9.928c0.459,-3.309 1.017,-5.777 1.673,-7.402c0.918,-2.09 2.46,-3.774 4.625,-5.051c2.165,-1.277 4.559,-1.916 7.183,-1.916c0.788,0 2.001,0.232 3.641,0.697c1.641,0.464 2.789,0.9 3.445,1.306c1.771,1.045 2.558,2.206 2.361,3.483c-0.131,1.045 -0.541,1.829 -1.23,2.352c-0.689,0.522 -1.82,0.987 -3.395,1.393c-2.165,0.523 -3.247,1.132 -3.247,1.829c0,0.406 0.558,1.03 1.673,1.872c1.115,0.842 2.132,1.408 3.05,1.698c6.167,2.032 9.48,0.174 9.939,-5.573c0.132,-2.148 -0.295,-3.962 -1.279,-5.443c-0.984,-1.48 -2.624,-2.714 -4.92,-3.701c-3.018,-1.335 -6.561,-2.003 -10.628,-2.003c-4.33,0.058 -7.052,0.639 -8.168,1.742c-1.312,1.277 -2.115,2.017 -2.411,2.22c-0.295,0.204 -0.77,0.305 -1.427,0.305c-1.115,0 -1.935,-0.348 -2.46,-1.045c-0.524,-0.697 -0.656,-1.596 -0.393,-2.699l0.295,-1.045c-0.066,0 -0.689,0.116 -1.87,0.348c-1.171,0.173 -3.763,0.288 -7.872,0.348l-5.905,0Z" style="fill:#fff;"/><path d="M230.77,3.255c0.196,-0.116 4.018,-0.145 11.464,-0.087c7.446,0.058 12.612,0.145 15.499,0.261c6.035,0.29 9.972,0.726 11.809,1.306c1.377,0.465 2.427,1.495 3.149,3.092c0.721,1.596 1.443,4.398 2.164,8.403c1.509,9.173 2.461,21.206 2.854,36.097c0.394,14.892 0,23.353 -1.181,25.385c-0.656,1.161 -1.837,2.061 -3.542,2.7c-1.509,0.581 -3.182,0.972 -5.019,1.176c-1.837,0.203 -4.986,0.333 -9.447,0.392c-7.413,0.116 -15.515,-0.262 -24.306,-1.133c-2.428,-0.232 -6.233,-0.464 -11.415,-0.696c-8.332,-0.291 -12.924,-0.813 -13.777,-1.568c-1.115,-0.871 -1.903,-2.569 -2.362,-5.094c-0.459,-2.526 -0.689,-6.488 -0.689,-11.887c0,-6.677 0.361,-14.863 1.083,-24.558c0.393,-4.645 0.59,-10.131 0.59,-16.459c0,-6.619 0.197,-10.479 0.591,-11.583c0.787,-2.264 2.312,-3.744 4.576,-4.441c2.263,-0.697 6.478,-1.074 12.645,-1.132c3.477,0 5.248,-0.058 5.314,-0.174Z" style="fill:#d9c724;"/><path d="M231.655,15.708l-3.542,0l0,8.578c-0.066,0.551 -0.23,1.088 -0.492,1.611c-0.984,1.567 -2.821,2.641 -5.511,3.222l-2.263,0.523l-0.197,1.219c-0.131,0.871 -0.197,1.538 -0.197,2.003l0,0.783l2.263,-0.174c1.575,-0.116 2.756,-0.058 3.543,0.174c1.771,0.407 2.919,1.728 3.444,3.963c0.525,2.235 0.656,6.401 0.394,12.496c-0.328,6.213 -0.476,10.015 -0.443,11.409c0.033,1.393 0.246,2.438 0.64,3.135c0.918,1.625 2.132,3.12 3.641,4.485c1.508,1.364 3.05,2.365 4.625,3.004c0.59,0.232 1.148,0.363 1.673,0.392c0.524,0.029 1.64,-0.044 3.345,-0.218c1.64,-0.116 2.739,-0.232 3.297,-0.348c0.558,-0.116 1.132,-0.378 1.722,-0.784c1.706,-0.987 3.149,-2.584 4.33,-4.79c0.918,-1.683 1.558,-3.454 1.919,-5.312c0.361,-1.858 0.508,-4.441 0.443,-7.75l0,-2.526l-4.625,0l0.098,5.312c0,2.671 -0.033,4.311 -0.098,4.921c-0.066,0.609 -0.328,1.32 -0.788,2.133c-0.853,1.684 -1.984,2.961 -3.395,3.832c-1.41,0.871 -2.935,1.219 -4.576,1.045c-1.508,-0.174 -2.739,-0.711 -3.69,-1.611c-0.951,-0.9 -1.853,-2.395 -2.706,-4.485c-0.394,-0.987 -0.754,-4.209 -1.082,-9.666c-0.46,-9.696 -0.427,-15.066 0.098,-16.111c0.525,-0.929 1.476,-1.539 2.854,-1.829c1.377,-0.29 4.33,-0.464 8.856,-0.522l4.133,0l-0.098,-1.655l-0.098,-1.655l-4.724,-0.174c-2.624,-0.116 -4.363,-0.247 -5.215,-0.392c-0.853,-0.145 -1.87,-0.479 -3.051,-1.001c-1.575,-0.755 -2.723,-1.901 -3.444,-3.44c-0.722,-1.538 -1.083,-3.643 -1.083,-6.314l0,-3.483Z" style="fill:#fff;"/><path d="M302.655,78.12c-2.755,0.29 -5.445,0.203 -8.069,-0.262c-0.722,-0.174 -1.411,-0.348 -2.067,-0.522c-0.197,0 -0.361,0 -0.492,0c-2.821,-0.291 -5.084,-0.581 -6.79,-0.871c-2.361,-0.465 -3.936,-0.987 -4.723,-1.568c-0.722,-0.58 -1.247,-1.48 -1.575,-2.699c-0.262,-0.755 -0.459,-1.713 -0.59,-2.874c-0.263,-1.858 -0.427,-4.238 -0.492,-7.141c0,-2.09 0,-4.645 0,-7.663c0,-0.117 0.016,-0.421 0.049,-0.915c0.033,-0.493 0.049,-0.769 0.049,-0.827l0,-3.658c-0.065,-3.89 -0.033,-6.967 0.099,-9.231c0.328,-5.515 1.279,-9.724 2.853,-12.627c0.066,-0.232 0.164,-0.464 0.296,-0.697c0.393,-1.335 1.016,-2.293 1.869,-2.873c1.181,-0.987 3.117,-1.597 5.806,-1.829c1.706,-0.116 3.904,-0.116 6.593,0c1.313,0.058 2.854,0.174 4.626,0.348c0.131,0 0.639,0.044 1.525,0.131c0.885,0.087 1.427,0.13 1.624,0.13c0.984,0.116 1.672,0.174 2.066,0.174c4.789,0.117 10.234,0 16.335,-0.348c0.197,0 0.738,-0.029 1.624,-0.087c0.886,-0.058 1.394,-0.087 1.525,-0.087c1.181,-0.058 2.165,-0.116 2.953,-0.174c2.033,-0.058 3.706,-0.058 5.018,0c3.608,0.232 6.331,1.277 8.168,3.135c1.706,1.8 2.854,4.702 3.444,8.708c0.394,3.193 0.591,8.302 0.591,15.327c0,1.103 0.164,3.426 0.492,6.967c0.196,2.322 0.328,4.151 0.393,5.486c0.131,3.019 0.099,5.574 -0.098,7.664c-0.328,2.845 -1.05,5.167 -2.165,6.967c-0.394,0.638 -0.919,1.132 -1.575,1.48c-1.443,0.755 -5.379,1.19 -11.808,1.306c-5.445,0.058 -11.842,-0.058 -19.189,-0.348c-2.887,-0.174 -5.675,-0.348 -8.365,-0.522Z" style="fill:#9b3434;"/><path d="M302.557,28.83c-2.034,0.232 -3.937,0.638 -5.708,1.219c-1.246,0.696 -2.509,1.669 -3.788,2.917c-1.28,1.248 -2.313,2.54 -3.1,3.875c-0.919,1.626 -1.312,3.019 -1.181,4.18c0.065,1.103 0.689,2.003 1.87,2.7c0.656,0.348 1.476,0.581 2.46,0.697c1.443,0.116 2.624,0.116 3.542,0c0.263,-0.058 0.525,-0.116 0.788,-0.174c0.065,0 0.131,-0.03 0.196,-0.088c0.066,0 0.099,-0.029 0.099,-0.087c0,-0.058 0.033,-0.145 0.098,-0.261c0,-0.348 -0.098,-0.842 -0.295,-1.48c-0.066,-0.291 -0.197,-0.697 -0.394,-1.22c-0.393,-1.161 -0.623,-1.973 -0.688,-2.438c-0.132,-0.522 -0.197,-0.987 -0.197,-1.393c0.065,-0.755 0.295,-1.394 0.689,-1.916c0.656,-1.045 1.771,-1.8 3.345,-2.264c1.05,-0.349 2.296,-0.552 3.74,-0.61c2.493,-0.116 4.625,0.116 6.396,0.697c0.131,0.058 0.263,0.087 0.394,0.087c0.918,0.116 1.771,0.29 2.558,0.522c1.64,0.465 3.051,1.423 4.232,2.874c1.246,1.568 1.804,3.077 1.673,4.529c-0.197,1.567 -1.116,2.844 -2.756,3.831c-1.049,0.639 -2.493,1.19 -4.33,1.655c-1.246,0.348 -2.985,0.726 -5.215,1.132c-0.262,0.058 -0.902,0.174 -1.919,0.348c-1.017,0.175 -1.591,0.262 -1.722,0.262c-1.443,0.29 -2.69,0.522 -3.739,0.696c-0.132,0.058 -0.296,0.116 -0.493,0.174c-0.393,0.117 -0.82,0.204 -1.279,0.262c-5.183,1.219 -8.824,2.757 -10.923,4.615c-1.312,1.219 -2.066,2.671 -2.263,4.354c-0.328,2.149 0.131,4.674 1.378,7.577c1.246,2.961 3.805,4.993 7.675,6.096c2.624,0.29 5.576,0.522 8.857,0.696c2.493,-0.29 4.723,-0.899 6.691,-1.828l0.099,-0.087c0.065,-0.058 0.196,-0.175 0.393,-0.349c0.263,-0.232 0.689,-0.638 1.28,-1.219c0.787,-0.755 1.344,-1.277 1.672,-1.567c0.394,-0.291 0.722,-0.523 0.985,-0.697c0.59,-0.407 1.18,-0.639 1.771,-0.697c0.984,-0.116 1.968,0.058 2.952,0.523c0.525,0.232 1.115,0.609 1.771,1.132c0.132,0.116 0.328,0.276 0.591,0.479c0.262,0.203 0.525,0.435 0.787,0.696c0.262,0.262 0.525,0.494 0.787,0.697c0.263,0.203 0.459,0.392 0.591,0.566l0.295,0.261c2.034,1.742 3.707,2.7 5.019,2.874c0.721,0.116 1.476,0 2.263,-0.348c1.115,-0.523 2.329,-1.481 3.641,-2.874l0,-0.174c0.131,-0.348 0.262,-0.813 0.394,-1.393c0.196,-1.278 0.328,-2.932 0.393,-4.964c0.066,-2.381 0.066,-5.167 0,-8.36c-1.443,0.406 -2.427,0.696 -2.952,0.87c-0.197,0.058 -0.361,0.117 -0.492,0.175c0,0.232 0,0.609 0,1.132c0,0.058 0.033,0.261 0.098,0.609c0.066,0.813 0.099,1.597 0.099,2.352c0.065,0.696 0.098,1.393 0.098,2.09c0,0.696 -0.295,1.306 -0.885,1.828c-0.591,0.523 -1.296,0.784 -2.116,0.784c-0.82,0 -1.509,-0.261 -2.067,-0.784c-0.557,-0.522 -0.836,-1.132 -0.836,-1.828c0,-0.755 -0.033,-1.568 -0.099,-2.439c0,-0.058 0,-0.145 0,-0.261c0,-0.174 -0.032,-0.697 -0.098,-1.568c-0.197,-1.973 -0.525,-5.283 -0.984,-9.927l0,-0.174c-0.328,-3.194 -0.558,-5.487 -0.689,-6.88c-0.328,-0.813 -0.623,-1.597 -0.886,-2.351c-0.59,-1.51 -1.213,-2.903 -1.869,-4.18c-0.787,-0.929 -1.279,-1.51 -1.476,-1.742c-0.788,-0.871 -1.509,-1.597 -2.165,-2.177c-2.231,-1.045 -4.724,-1.771 -7.479,-2.177c-0.394,-0.058 -0.82,-0.117 -1.279,-0.175l-6.298,0.088Z" style="fill:#fff;"/><path d="M306.099,52.517c1.837,-0.697 3.543,-1.162 5.117,-1.394c1.378,-0.232 2.592,-0.232 3.641,0c1.706,0.291 2.887,1.045 3.543,2.264c0.59,1.162 0.623,2.497 0.098,4.006c-0.459,1.22 -1.279,2.584 -2.46,4.093c-2.296,2.961 -5.248,4.79 -8.856,5.487c-1.509,0.232 -3.018,0.261 -4.527,0.087c-2.362,-0.116 -4.363,-0.581 -6.003,-1.394c-0.787,-0.464 -1.41,-0.958 -1.869,-1.48c-0.394,-0.523 -0.656,-1.074 -0.788,-1.655c-0.393,-0.522 -0.656,-1.074 -0.787,-1.654c-0.328,-1.394 -0.065,-2.671 0.787,-3.832c0.788,-1.045 2.034,-1.829 3.74,-2.351c2.821,-0.987 5.609,-1.713 8.364,-2.177Z" style="fill:#9b3434;"/><path d="M369.227,0.991c5.707,-0.116 11.251,-0.145 16.63,-0.087c5.249,0.116 12.99,0.174 23.224,0.174c7.938,0 12.957,0.072 15.056,0.217c2.099,0.146 3.838,0.508 5.216,1.089c1.18,0.523 2.001,1.118 2.46,1.785c0.459,0.668 0.771,1.669 0.935,3.005c0.164,1.335 0.246,3.628 0.246,6.879c0,4.761 -0.164,8.738 -0.492,11.931c-0.263,2.38 -0.378,4.282 -0.345,5.704c0.033,1.422 0.213,4.688 0.541,9.797c0.591,8.244 0.984,14.253 1.181,18.027c0,0.174 0,0.464 0,0.87c0.328,7.025 0.476,11.176 0.443,12.454c-0.033,1.277 -0.344,2.235 -0.935,2.873l-0.098,0.087c-1.312,1.394 -4.018,2.323 -8.119,2.787c-4.1,0.465 -12.284,0.784 -24.552,0.958c-17.057,0.232 -28.029,0.29 -32.917,0.174c-4.887,-0.116 -8.348,-0.522 -10.381,-1.219c-2.362,-0.755 -3.97,-2.656 -4.822,-5.704c-0.853,-3.048 -1.181,-8.084 -0.984,-15.109c0.131,-6.561 0.918,-16.488 2.361,-29.783c0.853,-7.664 1.362,-13.643 1.526,-17.94c0.164,-4.296 0.311,-6.589 0.442,-6.879c0.263,-0.639 1.411,-1.161 3.445,-1.568c1.049,-0.232 4.362,-0.406 9.939,-0.522Z" style="fill:#819b34;"/><path d="M413.312,12.66l-4.92,0l0.099,1.219c0.196,1.684 -0.46,2.787 -1.969,3.309c-0.721,0.291 -1.59,0.32 -2.607,0.088c-1.017,-0.233 -2.838,-0.9 -5.462,-2.003c-2.69,-1.162 -4.592,-1.887 -5.707,-2.178c-1.772,-0.406 -3.937,-0.522 -6.495,-0.348c-6.364,0.348 -11.743,2.656 -16.139,6.923c-4.395,4.267 -7.249,9.972 -8.561,17.112c-1.05,5.4 -0.689,10.741 1.082,16.024c2.1,6.502 5.577,11.495 10.431,14.979c4.855,3.483 10.3,4.905 16.336,4.267c4.789,-0.465 9.086,-2.584 12.891,-6.357c2.099,-2.148 3.936,-2.903 5.511,-2.265c0.721,0.291 1.197,0.741 1.427,1.35c0.229,0.61 0.278,1.611 0.147,3.005l-0.197,2.264l2.362,0.174l2.46,0.087c0.328,-0.348 0.689,-4.79 1.083,-13.324c0.131,-4.76 0.328,-7.431 0.59,-8.012c0.459,-1.161 1.329,-1.959 2.608,-2.394c1.279,-0.436 2.706,-0.421 4.281,0.043c0.328,0.058 0.557,-0.014 0.688,-0.218c0.132,-0.203 0.296,-0.74 0.492,-1.611c0.328,-1.335 0.46,-2.032 0.394,-2.09c-0.131,-0.116 -2.788,-0.232 -7.971,-0.348c-4.526,-0.116 -9.053,-0.29 -13.58,-0.523c-4.133,-0.232 -7.216,-0.29 -9.25,-0.174l-3.543,0.174l0,2.874l1.673,0.261c0.919,0.117 2.985,0.204 6.2,0.262c3.018,0 4.937,0.159 5.757,0.479c0.82,0.319 1.656,1.204 2.509,2.656c0.525,0.987 0.869,1.727 1.033,2.22c0.164,0.494 0.279,1.263 0.345,2.308c0.131,2.555 -0.591,4.848 -2.165,6.88c-1.772,2.206 -4.117,3.861 -7.036,4.964c-2.92,1.103 -6.052,1.509 -9.398,1.219c-2.624,-0.174 -4.953,-0.726 -6.987,-1.655c-5.183,-2.264 -9.217,-6.328 -12.104,-12.192c-3.87,-7.895 -3.739,-15.53 0.394,-22.903c2.165,-3.832 5.101,-6.894 8.807,-9.187c3.707,-2.294 7.627,-3.469 11.76,-3.527c4.854,-0.058 8.676,1.408 11.464,4.398c2.788,2.989 4.182,7.126 4.182,12.409l0.099,3.309l1.673,0l2.853,0.174l1.083,0.175l0,-3.222c0,-1.8 0.164,-4.703 0.492,-8.709c0.328,-3.89 0.557,-6.851 0.689,-8.883l0.196,-3.483Z" style="fill:#fff;"/><path d="M442.116,6.585c1.115,-0.232 2.428,-0.435 3.936,-0.61c4.527,-0.58 10.399,-0.87 17.615,-0.87l0.098,0c4.986,-0.291 9.185,-0.407 12.596,-0.349c2.625,0.058 4.79,0.233 6.495,0.523c1.115,0.174 2.034,0.377 2.756,0.609c0.524,0.058 1.016,0.117 1.476,0.175c0.853,0.116 1.541,0.232 2.066,0.348c1.05,0.232 1.837,0.61 2.362,1.132c0.394,0.464 0.689,0.958 0.886,1.48c0.065,0.233 0.098,0.494 0.098,0.784l0,0.349l-0.098,0.087c0,4.818 -0.197,11.437 -0.591,19.855c-0.065,0.464 -0.131,1.19 -0.197,2.177c-0.328,6.793 -0.557,11.873 -0.688,15.24c0,1.916 0.065,4.819 0.196,8.708c0,0.929 0,1.655 0,2.178c0.197,5.399 0.066,9.724 -0.393,12.975c0,0.058 -0.033,0.203 -0.099,0.436l0,0.087c0,0.348 -0.033,0.667 -0.098,0.958c-0.131,0.464 -0.263,0.899 -0.394,1.306c-0.328,0.755 -0.787,1.335 -1.377,1.742c-0.525,0.348 -1.312,0.551 -2.362,0.609c-0.459,0.058 -1.115,0.087 -1.968,0.087c-1.444,0 -3.412,-0.029 -5.905,-0.087c-4.723,-0.116 -10.529,-0.348 -17.417,-0.697c-6.626,-0.348 -12.367,-0.696 -17.221,-1.045c-2.559,-0.174 -4.527,-0.319 -5.905,-0.435c-0.787,-0.116 -1.41,-0.203 -1.87,-0.261c-0.984,-0.116 -1.705,-0.378 -2.164,-0.784c-0.263,-0.174 -0.492,-0.377 -0.689,-0.61c-0.591,-0.348 -1.05,-0.841 -1.378,-1.48c-0.459,-0.755 -0.853,-3.541 -1.181,-8.36c-0.262,-3.425 -0.525,-8.244 -0.787,-14.456c-0.066,-1.858 -0.164,-4.18 -0.295,-6.967c0,-0.464 0,-1.016 0,-1.655c-0.066,-0.812 -0.099,-1.335 -0.099,-1.567c-0.065,-1.277 -0.098,-2.293 -0.098,-3.048c-0.197,-4.354 -0.328,-6.996 -0.394,-7.925c-0.131,-1.451 -0.229,-3.57 -0.295,-6.357c-0.066,-0.29 -0.098,-0.523 -0.098,-0.697c0,-1.858 -0.033,-3.309 -0.099,-4.354c0,-0.058 -0.016,-0.174 -0.049,-0.348c-0.033,-0.174 -0.066,-0.378 -0.098,-0.61c-0.033,-0.232 -0.05,-0.406 -0.05,-0.522c-0.065,-0.581 -0.098,-1.132 -0.098,-1.655c-0.066,-1.045 -0.066,-1.887 0,-2.525c0.066,-0.523 0.197,-0.987 0.394,-1.394c0.196,-0.406 0.426,-0.755 0.688,-1.045c0.591,-0.464 1.28,-0.755 2.067,-0.871c3.083,-0.29 6.659,-0.377 10.726,-0.261Z" style="fill:#34729b;"/><path d="M473.114,30.533c-2.887,-2.67 -6.265,-4.325 -10.136,-4.963c-5.248,-0.871 -10.037,0.261 -14.367,3.396c-4.592,3.309 -7.741,8.273 -9.447,14.891c-0.066,0.581 -0.098,1.132 -0.098,1.655c-0.525,6.735 0.59,12.279 3.345,16.633c2.887,4.645 7.381,6.967 13.482,6.967c3.083,0 5.38,-0.116 6.888,-0.348c2.231,-0.291 4.199,-0.9 5.905,-1.829c3.936,-2.09 6.855,-4.964 8.758,-8.622c0.131,-0.29 0.262,-0.58 0.394,-0.87c0.524,-1.22 0.852,-2.352 0.984,-3.397c0.459,-2.786 0.41,-5.863 -0.148,-9.231c-0.558,-3.367 -1.558,-6.589 -3.001,-9.666c-0.788,-1.626 -1.64,-3.164 -2.559,-4.616Z" style="fill:#fff;"/><path d="M459.14,32.623c1.837,-0.522 3.576,-0.479 5.216,0.131c1.64,0.61 2.919,1.698 3.838,3.266c1.377,1.277 2.394,2.903 3.05,4.876c1.181,3.194 1.411,6.648 0.689,10.364c-0.787,3.947 -2.46,7.082 -5.019,9.405c-3.149,2.903 -7.019,3.89 -11.611,2.961c-3.084,-0.639 -5.282,-2.729 -6.594,-6.27c-1.049,-2.729 -1.41,-5.864 -1.082,-9.406c0.394,-3.599 1.378,-6.734 2.952,-9.405c2.099,-3.309 4.822,-5.283 8.168,-5.922c0.131,0 0.262,0 0.393,0Z" style="fill:#34729b;"/></g></svg>