<?xml version="1.0" encoding="UTF-8" standalone="no"?>
<!DOCTYPE svg PUBLIC "-//W3C//DTD SVG 1.1//EN" "http://www.w3.org/Graphics/SVG/1.1/DTD/svg11.dtd">
<svg width="100%" height="100%" viewBox="0 0 70 69" version="1.1" xmlns="http://www.w3.org/2000/svg" xmlns:xlink="http://www.w3.org/1999/xlink" xml:space="preserve" xmlns:serif="http://www.serif.com/" style="fill-rule:evenodd;clip-rule:evenodd;stroke-linejoin:round;stroke-miterlimit:1.41421;">
    <g transform="matrix(1,0,0,1,-8396,-253)">
        <g transform="matrix(1.25556,0,0,0.84898,6531.5,121)">
            <g transform="matrix(0.682404,0,0,0.893104,473.589,54.8365)">
                <path d="M1507.28,113.549C1517.85,113.243 1527.61,113.3 1536.57,113.722C1545.53,114.143 1551.65,114.774 1554.95,115.617C1557.47,116.229 1559.12,117.301 1559.88,118.832C1562.49,123.35 1563.79,142.071 1563.79,174.996C1563.79,185.639 1563.71,192.377 1563.56,195.21C1563.41,198.043 1562.95,199.842 1562.18,200.608C1561.72,201.144 1560.8,201.756 1559.42,202.446L1557.36,203.479L1549.43,203.479C1544.3,203.403 1540.86,203.25 1539.1,203.02C1537.26,202.714 1528.76,202.522 1513.6,202.446C1498.59,202.369 1490.09,202.178 1488.1,201.871C1485.57,201.565 1484.01,200.685 1483.39,199.23C1482.63,197.775 1482.24,181.504 1482.24,150.417C1482.24,149.422 1482.2,147.967 1482.13,146.053C1482.13,131.505 1482.22,122.986 1482.42,120.498C1482.61,118.009 1483.16,116.535 1484.08,116.076C1484.23,115.999 1484.35,115.923 1484.43,115.846C1486.88,114.621 1494.5,113.855 1507.28,113.549ZM1535.54,124.001C1534.08,123.465 1532.91,123.159 1532.03,123.082C1531.15,123.005 1529.07,122.967 1525.77,122.967C1522.25,122.967 1517.85,123.082 1512.57,123.312C1511.42,123.388 1506.63,123.58 1498.21,123.886C1493,124.116 1490.36,124.307 1490.28,124.46C1490.13,124.537 1490.21,125.417 1490.51,127.102L1490.97,129.629L1494.19,129.744C1496.33,129.897 1497.71,130.126 1498.32,130.433C1500.47,131.505 1501.92,136.29 1502.69,144.789C1502.92,148.388 1503.15,155.643 1503.38,166.554C1503.61,177.465 1503.61,183.495 1503.38,184.643C1502.92,187.017 1502.09,188.568 1500.91,189.295C1499.72,190.022 1497.33,190.424 1493.73,190.501L1489.71,190.616L1489.71,195.095L1493.27,195.095C1494.5,195.095 1500.89,195.133 1512.45,195.21L1528.07,195.21L1528.3,194.176C1528.45,193.41 1528.53,192.951 1528.53,192.798C1528.53,192.568 1526.88,192.415 1523.59,192.339C1521.29,192.339 1519.8,192.3 1519.11,192.224C1518.42,192.147 1517.66,191.879 1516.81,191.42C1515.21,190.654 1514.15,189.161 1513.66,186.94C1513.16,184.72 1512.91,180.241 1512.91,173.503C1512.91,168.449 1513.01,165.386 1513.2,164.314C1513.39,163.242 1514.02,162.362 1515.09,161.673C1516.16,160.984 1519.8,160.754 1526,160.984C1528.84,161.06 1532.32,160.754 1536.45,160.065C1540.59,159.376 1543.92,158.495 1546.45,157.423C1547.98,156.811 1549.36,156.102 1550.58,155.298C1551.81,154.494 1552.57,153.786 1552.88,153.174C1553.18,152.638 1553.41,151.106 1553.57,148.579C1553.64,146.895 1553.62,145.708 1553.51,145.019C1553.39,144.33 1553.11,143.258 1552.65,141.803C1551.19,137.592 1548.78,133.802 1545.41,130.433C1542.35,127.37 1539.06,125.226 1535.54,124.001ZM1516.01,125.035C1517.54,124.728 1519.21,124.747 1521.01,125.092C1522.81,125.437 1526.27,126.489 1531.4,128.25C1534.92,129.476 1537.41,130.471 1538.87,131.237C1542.16,132.921 1544.49,135.256 1545.87,138.243C1546.64,139.621 1547.02,141.344 1547.02,143.411C1546.94,145.325 1546.64,146.933 1546.1,148.235C1545.57,149.537 1544.57,150.877 1543.12,152.255C1541.28,154.169 1539.04,155.566 1536.4,156.447C1533.76,157.327 1530.02,157.997 1525.2,158.457C1520.91,158.84 1517.98,158.897 1516.41,158.629C1514.84,158.361 1513.75,157.691 1513.14,156.619C1512.76,155.777 1512.49,152.676 1512.34,147.316C1512.11,141.956 1511.88,138.74 1511.65,137.668C1511.42,136.52 1511.3,134.95 1511.3,132.959C1511.3,130.892 1511.57,129.361 1512.11,128.365C1512.95,126.604 1514.25,125.494 1516.01,125.035Z" style="fill:rgb(129,155,52);fill-rule:nonzero;"/>
            </g>
        </g>
    </g>
</svg>
