<?xml version="1.0" encoding="UTF-8" standalone="no"?>
<!DOCTYPE svg PUBLIC "-//W3C//DTD SVG 1.1//EN" "http://www.w3.org/Graphics/SVG/1.1/DTD/svg11.dtd">
<svg width="100%" height="100%" viewBox="0 0 200 200" version="1.1" xmlns="http://www.w3.org/2000/svg" xmlns:xlink="http://www.w3.org/1999/xlink" xml:space="preserve" xmlns:serif="http://www.serif.com/" style="fill-rule:evenodd;clip-rule:evenodd;stroke-linejoin:round;stroke-miterlimit:1.41421;">
    <g transform="matrix(1,0,0,1,-200,0)">
        <g transform="matrix(19.9333,0,0,11.6333,0,0)">
            <g>
                <g transform="matrix(0.051191,0,0,0.0949833,4.76077,-11.9679)">
                    <rect x="103" y="126" width="196" height="181" style="fill:rgb(71,145,241);"/>
                </g>
                <g transform="matrix(0.0134376,0,0,0.023025,12.0401,2.11121)">
                    <path d="M224,256C294.7,256 352,198.7 352,128C352,57.3 294.7,0 224,0C153.3,0 96,57.3 96,128C96,198.7 153.3,256 224,256ZM319.8,288.6L272,480L240,344L272,288L176,288L208,344L176,480L128.2,288.6C56.9,292 0,350.3 0,422.4L0,464C0,480.425 86.048,528.969 151.48,563.509C196.87,587.42 251.13,587.42 296.52,563.509C361.952,528.969 448,480.425 448,464L448,422.4C448,350.3 391.1,292 319.8,288.6Z" style="fill:white;fill-rule:nonzero;"/>
                </g>
            </g>
        </g>
    </g>
</svg>
